<?xml version="1.0" encoding="utf-8"?>
<!-- Generator: Adobe Illustrator 23.0.3, SVG Export Plug-In . SVG Version: 6.00 Build 0)  -->
<svg version="1.1" id="Capa_1" xmlns="http://www.w3.org/2000/svg" xmlns:xlink="http://www.w3.org/1999/xlink" x="0px" y="0px"
	 viewBox="0 0 1200 1200" enable-background="new 0 0 1200 1200" xml:space="preserve">
<path fill="#51D4ED" d="M842.14,805.534c5.905,27.315,0.154,56.072-15.781,78.892c-19.083,27.331-50.253,42.069-83.507,42.073
	c-17.598,0-35.774-4.128-53.062-12.7c-3.834-1.9-6.18-5.313-6.437-9.366c-0.275-4.333,1.985-8.753,5.755-11.262
	c3.656-2.417,8.218-2.694,12.198-0.719c24.376,12.087,52.983,12.696,76.522,1.616c20.827-9.804,35.231-27.686,40.558-50.36
	c6.893-29.341-3.948-58.987-27.615-75.522c-19.122-13.355-39.296-13.122-62.631-12.858c-3.18,0.036-6.383,0.075-9.613,0.075
	l-371.57,0.142c-0.002,0-0.004,0-0.006,0c-6.796,0-11.921-5.21-11.925-12.123c-0.002-6.921,5.123-12.143,11.925-12.147
	l363.496-0.138c4.553,0,9.071-0.087,13.555-0.17c24.755-0.446,50.374-0.936,74.541,13.403
	C821.009,757.694,836.492,779.416,842.14,805.534z M728.677,565.178c33.444-0.387,68.025-0.774,101.808,0.435
	c4.693,0.17,9.419,0.273,14.175,0.273c31.052,0,63.18-4.535,93.033-25.992c57.948-41.65,73.115-123.915,34.526-187.283
	c-39.714-65.212-128.45-87.037-202.027-49.661c-5.884,2.99-8.04,9.729-5.017,15.682c2.791,5.491,9.775,9.101,16.638,5.613
	c33.26-16.891,71.999-20.059,106.274-8.686c30.752,10.199,54.484,30.669,68.631,59.193c16.466,33.205,16.671,71.086,0.561,103.935
	c-15.666,31.949-44.79,54.326-79.905,61.389c-12.864,2.587-25.427,2.137-38.731,1.651c-5.196-0.186-10.569-0.379-15.988-0.383
	l-760.725-0.284c-0.004,0-0.006,0-0.008,0c-4.391,0-8.125,2.109-10.251,5.783c-2.228,3.855-2.23,8.836-0.006,12.692
	c2.121,3.682,5.86,5.791,10.258,5.795l615.825,0.233C694.69,565.517,711.976,565.367,728.677,565.178z M221.65,468.688
	l363.494,0.138c4.574,0,9.113,0.087,13.614,0.17c4.396,0.083,8.821,0.166,13.26,0.166c20.519,0,41.342-1.774,61.223-13.569
	c22.51-13.351,38.008-35.144,43.645-61.361c5.872-27.307,0.099-55.997-15.836-78.706c-29.286-41.737-86.725-54.077-136.559-29.361
	c-3.834,1.9-6.18,5.313-6.437,9.366c-0.275,4.337,1.983,8.757,5.753,11.262c3.654,2.425,8.212,2.694,12.198,0.719
	c24.394-12.091,53.028-12.684,76.587-1.58c20.813,9.804,35.194,27.675,40.493,50.321c6.492,27.757-2.698,55.574-23.985,72.599
	c-20.171,16.136-42.086,15.943-67.468,15.757c-2.779-0.024-5.581-0.047-8.406-0.047l-371.57-0.142c-0.004,0-0.006,0-0.008,0
	c-4.389,0-8.125,2.105-10.249,5.783c-2.228,3.855-2.232,8.836-0.008,12.692C213.515,466.575,217.253,468.684,221.65,468.688z
	 M1111.983,681.536c-24.007-24.27-56.84-38.988-92.453-41.445c-14.272-0.988-28.891-0.411-43.035,0.142
	c-8.321,0.328-16.924,0.664-25.227,0.668l-732.553,0.277c-6.802,0.004-11.927,5.226-11.925,12.147
	c0.004,6.913,5.129,12.123,11.925,12.123c0.002,0,0.004,0,0.006,0l527.275-0.198c24.827-0.02,50.062,0.17,74.493,0.352
	c60.231,0.431,122.515,0.889,183.611-1.505c38.046-1.58,73.344,14.26,96.833,43.206c22.67,27.931,30.564,64.257,21.66,99.657
	c-8.953,35.595-32.233,63.549-65.554,78.722c-36.884,16.788-81.159,15.508-118.434-3.425c-3.948-2.003-8.485-1.782-12.143,0.596
	c-3.786,2.465-6.083,6.873-5.848,11.222c0.219,4.08,2.542,7.533,6.372,9.48c24.858,12.625,51.231,18.743,76.852,18.743
	c43.092,0,84.037-17.325,111.938-50.159C1162.852,816.741,1161.15,731.237,1111.983,681.536z"/>
</svg>
